<?xml version="1.0" encoding="utf-8"?>
<!-- Generator: Adobe Illustrator 21.1.0, SVG Export Plug-In . SVG Version: 6.00 Build 0)  -->
<svg version="1.1" id="Layer_1" xmlns="http://www.w3.org/2000/svg" xmlns:xlink="http://www.w3.org/1999/xlink" x="0px" y="0px"
	 viewBox="0 0 1000 445.9" style="enable-background:new 0 0 1000 445.9;" xml:space="preserve">
<style type="text/css">
	.st0{fill:#E42228;}
	.st1{fill:#11844B;}
	.st2{fill:#2354A1;}
</style>
<g>
	<path class="st0" d="M0,0h178.2C238.7,0,285.6,21.8,319,65.3c29.8,39.3,44.6,89.5,44.6,150.9c0,47.3-8.8,90.1-26.4,128.4
		c-31,67.6-84.2,101.4-159.6,101.4H0V0z M166.4,394.3c20,0,36.4-2.1,49.3-6.4c22.9-7.9,41.7-23.1,56.4-45.5
		c11.7-18,20.1-41.1,25.2-69.2c3-16.8,4.5-32.4,4.5-46.7c0-55.2-10.7-98.1-32.2-128.7c-21.5-30.6-56-45.8-103.7-45.8H61v342.4H166.4
		z"/>
	<path class="st1" d="M715.9,0h60.4v392.8H1000v53.1H715.9V0z"/>
	<path class="st2" d="M537.8,0H606l161.8,445.9h-66.2l-46.5-133.6H480.1l-48.4,133.6h-61.9L537.8,0z M637.9,263.2l-68.7-197
		l-71.3,197H637.9z"/>
</g>
</svg>
